<mxfile host="Electron" modified="2024-02-04T10:57:20.530Z" agent="Mozilla/5.0 (Windows NT 10.0; Win64; x64) AppleWebKit/537.36 (KHTML, like Gecko) draw.io/23.0.2 Chrome/120.0.6099.109 Electron/28.1.0 Safari/537.36" etag="c_7kSkxugKmyv4gW_QOZ" version="23.0.2" type="device">
  <diagram name="第 1 页" id="Dbwe7WsrvAuqmzDq5Rc4">
    <mxGraphModel dx="766" dy="443" grid="1" gridSize="10" guides="1" tooltips="1" connect="1" arrows="1" fold="1" page="1" pageScale="1" pageWidth="827" pageHeight="1169" background="none" math="0" shadow="0">
      <root>
        <mxCell id="0" />
        <mxCell id="1" parent="0" />
        <mxCell id="GvulJ-3nISRoxLa4jEf8-1" value="" style="rounded=1;whiteSpace=wrap;html=1;strokeWidth=2;fillWeight=4;hachureGap=8;hachureAngle=45;fillColor=#1CACF2;sketch=1;strokeColor=#66FF66;fillStyle=auto;" vertex="1" parent="1">
          <mxGeometry x="150" y="290" width="150" height="70" as="geometry" />
        </mxCell>
        <mxCell id="GvulJ-3nISRoxLa4jEf8-4" value="&lt;font face=&quot;Comic Sans MS&quot;&gt;&lt;font color=&quot;#ffff99&quot; style=&quot;font-size: 50px;&quot;&gt;&amp;nbsp; &amp;nbsp; &amp;nbsp;S&lt;br&gt;&lt;/font&gt;&lt;font color=&quot;#ffb366&quot; style=&quot;font-size: 40px;&quot;&gt;cripter&lt;/font&gt;&lt;/font&gt;" style="text;html=1;strokeColor=none;fillColor=none;align=center;verticalAlign=middle;whiteSpace=wrap;rounded=0;" vertex="1" parent="1">
          <mxGeometry x="160" y="250" width="160" height="110" as="geometry" />
        </mxCell>
        <mxCell id="GvulJ-3nISRoxLa4jEf8-2" value="&lt;p&gt;&lt;b&gt;&lt;font style=&quot;font-size: 70px;&quot;&gt;&lt;font face=&quot;Comic Sans MS&quot; style=&quot;font-size: 70px;&quot;&gt;&lt;font style=&quot;font-size: 70px;&quot; color=&quot;#ff33ff&quot;&gt;R&lt;/font&gt;&lt;font style=&quot;font-size: 70px;&quot; color=&quot;#33ff99&quot;&gt;V&lt;/font&gt;&lt;/font&gt;&lt;/font&gt;&lt;/b&gt;&lt;/p&gt;" style="text;html=1;strokeColor=none;fillColor=none;align=center;verticalAlign=middle;whiteSpace=wrap;rounded=0;" vertex="1" parent="1">
          <mxGeometry x="150" y="260" width="125" height="70" as="geometry" />
        </mxCell>
      </root>
    </mxGraphModel>
  </diagram>
</mxfile>
